<?xml version="1.0" encoding="utf-8"?>
<!-- Generator: Adobe Illustrator 23.0.6, SVG Export Plug-In . SVG Version: 6.00 Build 0)  -->
<svg version="1.1" id="Layer_1" xmlns="http://www.w3.org/2000/svg" xmlns:xlink="http://www.w3.org/1999/xlink" x="0px" y="0px"
	 viewBox="0 0 350 250" style="enable-background:new 0 0 350 250;" xml:space="preserve">
<style type="text/css">
	.st0{fill:#50C1ED;}
	.st1{fill:#1D2971;}
	.st2{fill:#FEFEFE;}
	.st3{fill:url(#SVGID_1_);}
	.st4{fill:url(#SVGID_2_);}
	.st5{fill:url(#SVGID_3_);}
	.st6{fill:url(#SVGID_4_);}
	.st7{fill:url(#SVGID_5_);}
	.st8{fill:url(#SVGID_6_);}
	.st9{fill:url(#SVGID_7_);}
	.st10{fill:#4576C3;}
	.st11{fill:url(#SVGID_8_);}
	.st12{fill:url(#SVGID_9_);}
	.st13{fill:url(#SVGID_10_);}
	.st14{fill:url(#SVGID_11_);}
	.st15{fill:url(#SVGID_12_);}
	.st16{fill:url(#SVGID_13_);}
	.st17{fill:url(#SVGID_14_);}
	.st18{fill:url(#SVGID_15_);}
	.st19{fill:url(#SVGID_16_);}
	.st20{fill:url(#SVGID_17_);}
	.st21{fill:#FFFFFF;}
	.st22{fill:url(#SVGID_18_);}
	.st23{fill:url(#SVGID_19_);}
	.st24{fill:url(#SVGID_20_);}
	.st25{fill:url(#SVGID_21_);}
	.st26{fill:url(#SVGID_22_);}
	.st27{fill:url(#SVGID_23_);}
	.st28{fill:url(#SVGID_24_);}
	.st29{fill:url(#SVGID_25_);}
	.st30{fill:url(#SVGID_26_);}
	.st31{fill:url(#SVGID_27_);}
	.st32{fill:#1D2971;stroke:#FFFFFF;stroke-miterlimit:10;}
	.st33{fill:url(#SVGID_28_);}
	.st34{fill:url(#SVGID_29_);}
	.st35{fill:url(#SVGID_30_);}
	.st36{fill:url(#SVGID_31_);}
	.st37{fill:url(#SVGID_32_);}
	.st38{fill:url(#SVGID_33_);}
	.st39{fill:url(#SVGID_34_);}
	.st40{fill:url(#SVGID_35_);}
	.st41{fill:url(#SVGID_36_);}
	.st42{fill:url(#SVGID_37_);}
	.st43{fill:url(#SVGID_38_);}
	.st44{fill:url(#SVGID_39_);}
	.st45{fill:url(#SVGID_40_);}
	.st46{fill:url(#SVGID_41_);}
	.st47{fill:url(#SVGID_42_);}
	.st48{fill:url(#SVGID_43_);}
	.st49{fill:url(#SVGID_44_);}
</style>
<g>
	<g>
		<g>
			<path class="st10" d="M60.7,124.01c0.71,1.16,1.44,2.3,2.12,3.47c0.23,0.39,0.56,0.32,0.88,0.32c5,0.06,9.99,0.11,14.99,0.17
				c0.26,0,0.51,0.01,0.76,0.01c0.09,0.22-0.06,0.33-0.13,0.45c-1.64,2.55-3.29,5.09-4.91,7.65c-0.23,0.36-0.49,0.46-0.89,0.45
				c-1.61-0.04-3.23-0.04-4.97-0.06c1.08,1.67,2.1,3.24,3.12,4.81c2.8,4.32,5.6,8.64,8.41,12.96c0.19,0.28,0.38,0.51,0.13,0.9
				c-1.36,2.08-2.69,4.17-4.08,6.35c-9.91-15.24-19.77-30.41-29.69-45.67c13.75,0.15,27.41,0.3,41.1,0.45
				c0.11,0.17-0.09,0.29-0.18,0.43c-1.46,2.23-2.93,4.45-4.36,6.7c-0.29,0.46-0.6,0.61-1.13,0.6c-6.7-0.09-13.4-0.16-20.09-0.23
				c-0.28,0-0.57,0.03-0.85,0.05C60.73,123.77,60.62,123.79,60.7,124.01z"/>
			
				<linearGradient id="SVGID_1_" gradientUnits="userSpaceOnUse" x1="87.8694" y1="150.8178" x2="67.1383" y2="116.9757" gradientTransform="matrix(0.9999 0.0108 -0.0108 0.9999 1.5035 -1.0106)">
				<stop  offset="0.1627" style="stop-color:#1D2971"/>
				<stop  offset="0.5858" style="stop-color:#4675C3"/>
				<stop  offset="0.966" style="stop-color:#50C1ED"/>
			</linearGradient>
			<path class="st3" d="M60.7,124.01c0.71,1.16,1.44,2.3,2.12,3.47c0.23,0.39,0.56,0.32,0.88,0.32c5,0.06,9.99,0.11,14.99,0.17
				c0.26,0,0.51,0.01,0.76,0.01c0.09,0.22-0.06,0.33-0.13,0.45c-1.64,2.55-3.29,5.09-4.91,7.65c-0.23,0.36-0.49,0.46-0.89,0.45
				c-1.61-0.04-3.23-0.04-4.97-0.06c1.08,1.67,2.1,3.24,3.12,4.81c2.8,4.32,5.6,8.64,8.41,12.96c0.19,0.28,0.38,0.51,0.13,0.9
				c-1.36,2.08-2.69,4.17-4.08,6.35c-9.91-15.24-19.77-30.41-29.69-45.67c13.75,0.15,27.41,0.3,41.1,0.45
				c0.11,0.17-0.09,0.29-0.18,0.43c-1.46,2.23-2.93,4.45-4.36,6.7c-0.29,0.46-0.6,0.61-1.13,0.6c-6.7-0.09-13.4-0.16-20.09-0.23
				c-0.28,0-0.57,0.03-0.85,0.05C60.73,123.77,60.62,123.79,60.7,124.01z"/>
		</g>
		<g>
			<path class="st1" d="M28.21,115.55c2.7,0.03,5.23,0.07,7.76,0.07c0.43,0,0.58,0.26,0.77,0.55c4.45,6.87,8.89,13.73,13.34,20.6
				c2.29,3.53,4.57,7.06,6.86,10.59c0.12,0.19,0.19,0.44,0.48,0.55c1.26-1.84,2.53-3.68,3.83-5.57c1.43,2.07,2.82,4.1,4.22,6.11
				c0.16,0.24,0.15,0.4-0.01,0.62c-2.8,4.03-5.59,8.07-8.45,12.2C47.42,146.03,37.86,130.86,28.21,115.55z"/>
			
				<linearGradient id="SVGID_2_" gradientUnits="userSpaceOnUse" x1="34.9689" y1="115.9134" x2="61.7512" y2="155.6947" gradientTransform="matrix(0.9999 0.0108 -0.0108 0.9999 1.5035 -1.0106)">
				<stop  offset="0.1627" style="stop-color:#1D2971"/>
				<stop  offset="0.1891" style="stop-color:#202F77"/>
				<stop  offset="0.3131" style="stop-color:#2D4791"/>
				<stop  offset="0.4252" style="stop-color:#3555A1"/>
				<stop  offset="0.5143" style="stop-color:#385AA6"/>
				<stop  offset="0.966" style="stop-color:#50C1ED"/>
			</linearGradient>
			<path class="st4" d="M28.21,115.55c2.7,0.03,5.23,0.07,7.76,0.07c0.43,0,0.58,0.26,0.77,0.55c4.45,6.87,8.89,13.73,13.34,20.6
				c2.29,3.53,4.57,7.06,6.86,10.59c0.12,0.19,0.19,0.44,0.48,0.55c1.26-1.84,2.53-3.68,3.83-5.57c1.43,2.07,2.82,4.1,4.22,6.11
				c0.16,0.24,0.15,0.4-0.01,0.62c-2.8,4.03-5.59,8.07-8.45,12.2C47.42,146.03,37.86,130.86,28.21,115.55z"/>
		</g>
		
			<linearGradient id="SVGID_3_" gradientUnits="userSpaceOnUse" x1="77.5344" y1="134.8372" x2="106.4165" y2="134.8372" gradientTransform="matrix(0.9999 0.0108 -0.0108 0.9999 1.5035 -1.0106)">
			<stop  offset="0.0375" style="stop-color:#1D2971"/>
			<stop  offset="0.2166" style="stop-color:#2C4690"/>
			<stop  offset="0.4577" style="stop-color:#3E69B5"/>
			<stop  offset="0.5858" style="stop-color:#4576C3"/>
			<stop  offset="0.6325" style="stop-color:#4783CA"/>
			<stop  offset="0.7729" style="stop-color:#4CA5DD"/>
			<stop  offset="0.8891" style="stop-color:#4FB9E9"/>
			<stop  offset="0.966" style="stop-color:#50C1ED"/>
		</linearGradient>
		<path class="st5" d="M106.65,116.4c-8.45,12.35-16.81,24.58-25.24,36.89c-0.99-1.59-1.94-3.1-2.89-4.62
			c-0.4-0.64-1.1-1.3-1.09-1.94c0.01-0.64,0.74-1.27,1.16-1.9c6.25-9.31,12.5-18.62,18.73-27.94c0.3-0.45,0.61-0.6,1.14-0.59
			C101.14,116.35,103.8,116.37,106.65,116.4z"/>
		<path class="st2" d="M60.7,124.01c-0.09-0.23,0.03-0.24,0.2-0.2C60.84,123.88,60.77,123.95,60.7,124.01z"/>
	</g>
	<g>
		<g>
			<g>
				<path d="M112.49,115.6h6.73l3.82,15.61l5.2-15.61h6.69l5.17,15.61l3.82-15.61h6.73l-7.24,24.99h-6.26l-5.57-15.82l-5.57,15.82
					h-6.26L112.49,115.6z"/>
				<path d="M159.71,121.17v3.89h12.22v5.57h-12.22v4.4h13.46v5.57h-19.68V115.6h19.68v5.57H159.71z"/>
				<path d="M177.09,115.6h13.06c4.62,0,7.82,2.66,7.82,6.29c0,2.47-1.27,4.47-3.46,5.57c2.87,1.27,4.58,3.64,4.58,6.37
					c0,4-3.53,6.77-8.48,6.77h-13.53V115.6z M188.62,125.5c1.71,0,2.95-0.98,2.95-2.33c0-1.35-1.24-2.29-2.95-2.29h-5.35v4.62
					H188.62z M189.57,135.32c1.82,0,3.13-1.05,3.13-2.51s-1.31-2.51-3.13-2.51h-6.29v5.02H189.57z"/>
				<path d="M218.88,121.17v4.47h12.22v5.57h-12.22v9.39h-6.22V115.6h19.68v5.57H218.88z"/>
				<path d="M252.31,136.96h-9.89l-1.46,3.64h-6.98l9.89-24.99h6.98l9.89,24.99h-6.98L252.31,136.96z M250.38,132.08l-3.02-7.67
					l-3.02,7.67H250.38z"/>
				<path d="M278.1,140.59l-5.49-7.82h-3.06v7.82h-6.22V115.6h11.6c5.49,0,9.49,3.53,9.49,8.58c0,3.64-2.07,6.51-5.31,7.82
					l6.04,8.58H278.1z M269.55,127.1h4.8c2.15,0,3.67-1.16,3.67-2.91s-1.53-2.91-3.67-2.91h-4.8V127.1z"/>
				<path d="M288.46,115.6h6.22l7.2,13.02l7.2-13.02h6.22v24.99h-6.22v-14.48l-7.2,13.02l-7.2-13.02v14.48h-6.22V115.6z"/>
			</g>
			<g>
				<linearGradient id="SVGID_4_" gradientUnits="userSpaceOnUse" x1="299.1597" y1="119.366" x2="121.5962" y2="137.5502">
					<stop  offset="0" style="stop-color:#50C1ED"/>
					<stop  offset="0.367" style="stop-color:#4579C5"/>
					<stop  offset="1" style="stop-color:#1D2971"/>
				</linearGradient>
				<path class="st6" d="M112.49,115.6h6.73l3.82,15.61l5.2-15.61h6.69l5.17,15.61l3.82-15.61h6.73l-7.24,24.99h-6.26l-5.57-15.82
					l-5.57,15.82h-6.26L112.49,115.6z"/>
				<linearGradient id="SVGID_5_" gradientUnits="userSpaceOnUse" x1="299.1597" y1="119.366" x2="121.5962" y2="137.5502">
					<stop  offset="0" style="stop-color:#50C1ED"/>
					<stop  offset="0.367" style="stop-color:#4579C5"/>
					<stop  offset="1" style="stop-color:#1D2971"/>
				</linearGradient>
				<path class="st7" d="M159.71,121.17v3.89h12.22v5.57h-12.22v4.4h13.46v5.57h-19.68V115.6h19.68v5.57H159.71z"/>
				<linearGradient id="SVGID_6_" gradientUnits="userSpaceOnUse" x1="299.1597" y1="119.366" x2="121.5962" y2="137.5502">
					<stop  offset="0" style="stop-color:#50C1ED"/>
					<stop  offset="0.367" style="stop-color:#4579C5"/>
					<stop  offset="1" style="stop-color:#1D2971"/>
				</linearGradient>
				<path class="st8" d="M177.09,115.6h13.06c4.62,0,7.82,2.66,7.82,6.29c0,2.47-1.27,4.47-3.46,5.57c2.87,1.27,4.58,3.64,4.58,6.37
					c0,4-3.53,6.77-8.48,6.77h-13.53V115.6z M188.62,125.5c1.71,0,2.95-0.98,2.95-2.33c0-1.35-1.24-2.29-2.95-2.29h-5.35v4.62
					H188.62z M189.57,135.32c1.82,0,3.13-1.05,3.13-2.51s-1.31-2.51-3.13-2.51h-6.29v5.02H189.57z"/>
				<linearGradient id="SVGID_7_" gradientUnits="userSpaceOnUse" x1="299.1597" y1="119.366" x2="121.5962" y2="137.5502">
					<stop  offset="0" style="stop-color:#50C1ED"/>
					<stop  offset="0.367" style="stop-color:#4579C5"/>
					<stop  offset="1" style="stop-color:#1D2971"/>
				</linearGradient>
				<path class="st9" d="M218.88,121.17v4.47h12.22v5.57h-12.22v9.39h-6.22V115.6h19.68v5.57H218.88z"/>
				<linearGradient id="SVGID_8_" gradientUnits="userSpaceOnUse" x1="299.1597" y1="119.366" x2="121.5962" y2="137.5502">
					<stop  offset="0" style="stop-color:#50C1ED"/>
					<stop  offset="0.367" style="stop-color:#4579C5"/>
					<stop  offset="1" style="stop-color:#1D2971"/>
				</linearGradient>
				<path class="st11" d="M252.31,136.96h-9.89l-1.46,3.64h-6.98l9.89-24.99h6.98l9.89,24.99h-6.98L252.31,136.96z M250.38,132.08
					l-3.02-7.67l-3.02,7.67H250.38z"/>
				<linearGradient id="SVGID_9_" gradientUnits="userSpaceOnUse" x1="299.1597" y1="119.366" x2="121.5962" y2="137.5502">
					<stop  offset="0" style="stop-color:#50C1ED"/>
					<stop  offset="0.367" style="stop-color:#4579C5"/>
					<stop  offset="1" style="stop-color:#1D2971"/>
				</linearGradient>
				<path class="st12" d="M278.1,140.59l-5.49-7.82h-3.06v7.82h-6.22V115.6h11.6c5.49,0,9.49,3.53,9.49,8.58
					c0,3.64-2.07,6.51-5.31,7.82l6.04,8.58H278.1z M269.55,127.1h4.8c2.15,0,3.67-1.16,3.67-2.91s-1.53-2.91-3.67-2.91h-4.8V127.1z"
					/>
				<linearGradient id="SVGID_10_" gradientUnits="userSpaceOnUse" x1="299.1597" y1="119.366" x2="121.5962" y2="137.5502">
					<stop  offset="0" style="stop-color:#50C1ED"/>
					<stop  offset="0.367" style="stop-color:#4579C5"/>
					<stop  offset="1" style="stop-color:#1D2971"/>
				</linearGradient>
				<path class="st13" d="M288.46,115.6h6.22l7.2,13.02l7.2-13.02h6.22v24.99h-6.22v-14.48l-7.2,13.02l-7.2-13.02v14.48h-6.22V115.6
					z"/>
			</g>
		</g>
		<g>
			<path class="st21" d="M144.64,151.2h-3.61v-2.64h10.16v2.64h-3.59v9.22h-2.95V151.2z"/>
			<path class="st21" d="M157.09,151.2v1.85h5.8v2.64h-5.8v2.09h6.39v2.64h-9.34v-11.87h9.34v2.64H157.09z"/>
			<path class="st21" d="M166.23,154.49c0-3.33,2.92-6.13,6.37-6.13c1.85,0,3.54,0.79,4.72,2.04l-2.16,1.92
				c-0.62-0.78-1.55-1.28-2.56-1.28c-1.81,0-3.35,1.59-3.35,3.46c0,1.88,1.54,3.47,3.35,3.47c1.02,0,1.93-0.5,2.57-1.28l2.14,1.9
				c-1.17,1.26-2.87,2.06-4.72,2.06C169.15,160.63,166.23,157.82,166.23,154.49z"/>
			<path class="st21" d="M190.93,148.56v11.87h-2.95v-4.73h-4.85v4.73h-2.95v-11.87h2.95v4.49h4.85v-4.49H190.93z"/>
			<path class="st21" d="M194.57,148.56h2.95l5.16,7.01v-7.01h2.95v11.87h-2.95l-5.16-7.01v7.01h-2.95V148.56z"/>
			<path class="st21" d="M208.83,154.49c0-3.33,2.92-6.13,6.37-6.13c3.47,0,6.39,2.8,6.39,6.13c0,3.33-2.92,6.15-6.39,6.15
				C211.75,160.63,208.83,157.82,208.83,154.49z M218.56,154.49c0-1.87-1.54-3.46-3.35-3.46c-1.81,0-3.35,1.59-3.35,3.46
				c0,1.88,1.54,3.47,3.35,3.47C217.02,157.96,218.56,156.37,218.56,154.49z"/>
			<path class="st21" d="M233.32,157.79v2.64h-8.65v-11.87h2.94v9.22H233.32z"/>
			<path class="st21" d="M235.81,154.49c0-3.33,2.92-6.13,6.37-6.13c3.47,0,6.39,2.8,6.39,6.13c0,3.33-2.92,6.15-6.39,6.15
				C238.73,160.63,235.81,157.82,235.81,154.49z M245.53,154.49c0-1.87-1.54-3.46-3.35-3.46c-1.81,0-3.35,1.59-3.35,3.46
				c0,1.88,1.54,3.47,3.35,3.47C244,157.96,245.53,156.37,245.53,154.49z"/>
			<path class="st21" d="M257.12,153.62h5.41v4.96c-1.21,1.3-3.02,2.06-4.85,2.06c-3.51,0-6.44-2.82-6.44-6.15
				c0-3.33,2.94-6.13,6.44-6.13c1.83,0,3.64,0.76,4.85,2.04l-2.16,1.92c-0.64-0.79-1.68-1.28-2.69-1.28c-1.85,0-3.42,1.59-3.42,3.46
				c0,1.88,1.57,3.47,3.42,3.47c0.69,0,1.4-0.22,1.99-0.62v-1.49h-2.54V153.62z"/>
			<path class="st21" d="M265.93,148.56h2.95v11.87h-2.95V148.56z"/>
			<path class="st21" d="M275.46,151.2v1.85h5.8v2.64h-5.8v2.09h6.39v2.64h-9.34v-11.87h9.34v2.64H275.46z"/>
			<path class="st21" d="M284.22,158.65l1.66-1.99c1.16,0.95,2.45,1.5,3.9,1.5c1.11,0,1.68-0.45,1.68-1.09
				c0-0.71-0.55-0.86-2.28-1.28c-2.54-0.57-4.42-1.26-4.42-3.64c0-2.28,1.83-3.8,4.54-3.8c1.99,0,3.54,0.57,4.8,1.62l-1.5,2.11
				c-1.09-0.83-2.28-1.26-3.39-1.26c-0.95,0-1.49,0.45-1.49,1.04c0,0.73,0.57,0.97,2.33,1.35c2.66,0.57,4.37,1.33,4.37,3.56
				c0,2.38-1.81,3.87-4.75,3.87C287.57,160.63,285.65,159.94,284.22,158.65z"/>
		</g>
	</g>
</g>
</svg>
